<?xml version="1.0" encoding="UTF-8" standalone="no"?>
<!-- Created with Inkscape (http://www.inkscape.org/) -->

<svg
   width="48"
   height="16"
   viewBox="0 0 12.7 4.2333334"
   version="1.1"
   id="svg8"
   inkscape:version="1.3 (0e150ed, 2023-07-21)"
   sodipodi:docname="eye_bean_e.svg"
   inkscape:export-filename="../../../data/emotions/eyelash/png/eye_bean_e.png"
   inkscape:export-xdpi="96"
   inkscape:export-ydpi="96"
   xmlns:inkscape="http://www.inkscape.org/namespaces/inkscape"
   xmlns:sodipodi="http://sodipodi.sourceforge.net/DTD/sodipodi-0.dtd"
   xmlns="http://www.w3.org/2000/svg"
   xmlns:svg="http://www.w3.org/2000/svg"
   xmlns:rdf="http://www.w3.org/1999/02/22-rdf-syntax-ns#"
   xmlns:cc="http://creativecommons.org/ns#"
   xmlns:dc="http://purl.org/dc/elements/1.1/">
  <defs
     id="defs2" />
  <sodipodi:namedview
     id="base"
     pagecolor="#ffffff"
     bordercolor="#666666"
     borderopacity="1.0"
     inkscape:pageopacity="0.0"
     inkscape:pageshadow="2"
     inkscape:zoom="7.2084488"
     inkscape:cx="31.14401"
     inkscape:cy="1.2485349"
     inkscape:document-units="mm"
     inkscape:current-layer="layer2"
     showgrid="false"
     units="px"
     inkscape:window-width="1096"
     inkscape:window-height="847"
     inkscape:window-x="344"
     inkscape:window-y="25"
     inkscape:window-maximized="0"
     inkscape:showpageshadow="2"
     inkscape:pagecheckerboard="0"
     inkscape:deskcolor="#d1d1d1" />
  <metadata
     id="metadata5">
    <rdf:RDF>
      <cc:Work
         rdf:about="">
        <dc:format>image/svg+xml</dc:format>
        <dc:type
           rdf:resource="http://purl.org/dc/dcmitype/StillImage" />
        <dc:title />
      </cc:Work>
    </rdf:RDF>
  </metadata>
  <g
     inkscape:groupmode="layer"
     id="layer2"
     inkscape:label="Layer 2">
    <path
       style="opacity:1;vector-effect:none;fill:#00ff00;fill-opacity:1;stroke:none;stroke-width:0.376695;stroke-linecap:butt;stroke-linejoin:miter;stroke-miterlimit:4;stroke-dasharray:none;stroke-dashoffset:0;stroke-opacity:1"
       d="M 9.2604165,0.13229166 A 1.984375,1.984375 0 0 0 7.2760416,2.1166666 1.984375,1.984375 0 0 0 9.2604165,4.1010416 1.984375,1.984375 0 0 0 11.244791,2.1166666 1.984375,1.984375 0 0 0 9.2604165,0.13229166 Z m 0,0.52916666 A 1.4552083,1.4552083 0 0 1 10.715625,2.1166666 1.4552083,1.4552083 0 0 1 9.2604165,3.571875 1.4552083,1.4552083 0 0 1 7.8052082,2.1166666 1.4552083,1.4552083 0 0 1 9.2604165,0.66145832 Z"
       id="path4523"
       inkscape:connector-curvature="0" />
    <path
       style="display:inline;fill:#00ff00;fill-opacity:1;stroke:none;stroke-width:0.264583px;stroke-linecap:butt;stroke-linejoin:miter;stroke-opacity:1"
       d="M 7.7792937,0.98679842 C 7.4534137,1.1263171 6.4607648,1.0098343 5.7301928,0.662226 c 0.146153,0.4880247 0.705611,0.8337398 1.455591,0.944033 0.118539,0.05996 -0.2375187,0.3036455 -0.7866921,0.3938066 0.37237,0.3299606 1.0941693,0.2396013 1.1917649,-0.019984 z"
       id="path1"
       sodipodi:nodetypes="cccccc" />
  </g>
</svg>
